:version 1.10
:name ASF
:units
  mass 1
  length 1
  angle deg
:documentation
  ASF file generated by Kaydara
:root
  axis xyz
  order  tx ty tz rx ry rz
  position 0 0 0
  orientation 0 0 0
:bonedata
  begin
    id 1
    name RightUpLegDummy
    direction -0.718183 -0.695806 0.00816078
    length 4.904
    axis 0 0 0 xyz
  end
  begin
    id 2
    name RightUpLeg
    direction 3.53373e-006 -0.995788 0.0916898
    length 17.4976
    axis -3.49089 -0.000906625 0.000286804 xyz
    dof rx ry rz
  end
  begin
    id 3
    name RightLeg
    direction 0.00371092 -0.995096 -0.0988419
    length 16.5821
    axis 3.68512 0.0193738 -0.131023 xyz
    dof rx ry rz
  end
  begin
    id 4
    name RightFoot
    direction 0.00079151 -0.46099 0.887405
    length 3.77069
    axis 4.81691e-005 -0.120479 -0.188788 xyz
    dof rx ry rz
  end
  begin
    id 5
    name RightToes
    direction 0 0 0
    length 0
    axis 0 0 0 xyz
    dof rx ry rz
  end
  begin
    id 6
    name SpineDummy
    direction 8.3039e-015 1 4.57515e-016
    length 4.6813
    axis 0 0 0 xyz
  end
  begin
    id 7
    name Spine
    direction -3.15643e-008 0.999988 0.00495137
    length 10.1015
    axis -0.001389 0.000121418 2.40972e-006 xyz
    dof rx ry rz
  end
  begin
    id 8
    name Spine1
    direction 0 0 0
    length 0
    axis -0.001389 0.000121451 1.30017e-006 xyz
    dof rx ry rz
  end
  begin
    id 9
    name HEadDummy
    direction -1.99912e-008 0.999999 0.00127422
    length 3.43865
    axis -0.001389 0.000121451 1.30017e-006 xyz
  end
  begin
    id 10
    name HEad
    direction 0 0 0
    length 0
    axis 0 0 0 xyz
    dof rx ry rz
  end
  begin
    id 11
    name LeftShoulder1Dummy
    direction 0.998891 -0.0402509 -0.0244456
    length 3.5433
    axis -0.001389 0.000121451 1.30017e-006 xyz
  end
  begin
    id 12
    name LeftShoulder1
    direction 0.99951 -0.000327763 0.0313091
    length 4.05031
    axis -0.001389 0.000121451 1.30017e-006 xyz
    dof rx ry rz
  end
  begin
    id 13
    name LeftArm
    direction 0.998561 -0.00100056 -0.0536182
    length 10.3537
    axis -23.1894 0.134784 0.967509 xyz
    dof rx ry rz
  end
  begin
    id 14
    name LeftForeArm
    direction 0.998903 0.00866432 0.046012
    length 8.70632
    axis -9.91835 -0.06569 -0.177794 xyz
    dof rx ry rz
  end
  begin
    id 15
    name LeftHand
    direction 0 0 0
    length 0
    axis 0 0 0 xyz
    dof rx ry rz
  end
  begin
    id 16
    name RightShoulderDummy
    direction -0.998891 -0.0402509 -0.0244414
    length 3.5433
    axis -0.001389 0.000121451 1.30017e-006 xyz
  end
  begin
    id 17
    name RightShoulder
    direction -0.99951 -0.000327807 0.0313133
    length 4.05031
    axis 0.215806 0.000203643 -0.0068026 xyz
    dof rx ry rz
  end
  begin
    id 18
    name RightArm
    direction -0.998573 -0.000999564 -0.053403
    length 10.3947
    axis -23.2009 -0.134239 -0.964101 xyz
    dof rx ry rz
  end
  begin
    id 19
    name RightForeArm
    direction -0.998898 0.00868028 0.0461306
    length 8.68355
    axis -9.92322 0.0658061 0.178868 xyz
    dof rx ry rz
  end
  begin
    id 20
    name RightHand
    direction 0 0 0
    length 0
    axis 0 0 0 xyz
    dof rx ry rz
  end
  begin
    id 21
    name LeftUpLegDummy
    direction 0.718183 -0.695806 0.00816078
    length 4.904
    axis 0 0 0 xyz
  end
  begin
    id 22
    name LeftUpLeg
    direction -6.81752e-006 -0.995793 0.0916337
    length 17.4976
    axis -3.48766 0.00143442 -0.000524262 xyz
    dof rx ry rz
  end
  begin
    id 23
    name LeftLeg
    direction -0.00601358 -0.995091 -0.0987824
    length 16.5821
    axis 3.68178 -0.00654042 -0.000285133 xyz
    dof rx ry rz
  end
  begin
    id 24
    name LeftFoot
    direction -0.00417578 -0.460984 0.887399
    length 3.77069
    axis 1.87233e-006 4.66016e-005 -8.6538e-006 xyz
    dof rx ry rz
  end
  begin
    id 25
    name LeftToes
    direction 0 0 0
    length 0
    axis 0 0 0 xyz
    dof rx ry rz
  end
:hierarchy
  begin
    root RightUpLegDummy SpineDummy LeftUpLegDummy
    RightUpLegDummy RightUpLeg
    RightUpLeg RightLeg
    RightLeg RightFoot
    RightFoot RightToes
    SpineDummy Spine
    Spine Spine1
    Spine1 HEadDummy LeftShoulder1Dummy RightShoulderDummy
    HEadDummy HEad
    LeftShoulder1Dummy LeftShoulder1
    LeftShoulder1 LeftArm
    LeftArm LeftForeArm
    LeftForeArm LeftHand
    RightShoulderDummy RightShoulder
    RightShoulder RightArm
    RightArm RightForeArm
    RightForeArm RightHand
    LeftUpLegDummy LeftUpLeg
    LeftUpLeg LeftLeg
    LeftLeg LeftFoot
    LeftFoot LeftToes
  end

:SAMPLES-PER-SECOND 30
:FULLY-SPECIFIED
:DEGREES
95
root  -10.8161 37.596 -1.13017 -165.318 -79.6867 162.997
RightUpLeg  19.5319 -14.3009 -22.1145
RightLeg  28.9908 0.874644 0.149383
RightFoot  -10.0125 -0.297729 20.1949
RightToes  0.000481921 0.542163 -0.142578
Spine  6.91457 5.43039 7.94459
Spine1  2.01317 9.28223 -16.4273
HEad  -13.4623 4.35218 -17.4696
LeftShoulder1  6.6595 -12.4902 -35.5766
LeftArm  6.34755 61.944 -8.72406
LeftForeArm  17.747 -5.00761 -5.27028
LeftHand  -0.25398 0.0180481 5.50724
RightShoulder  5.29162 9.18746 35.7175
RightArm  -9.0422 17.7898 28.4429
RightForeArm  23.9736 75.3493 49.2989
RightHand  -3.05631 8.70599 -25.2223
LeftUpLeg  -29.3561 16.5375 -11.924
LeftLeg  31.6714 7.65666 5.42654
LeftFoot  -3.94471 -0.535572 8.70292
LeftToes  1.06245e-005 4.65868e-005 -8.65515e-006
96
root  -12.4571 37.1266 -0.879684 -162.513 -79.9729 158.294
RightUpLeg  15.1984 -8.82425 -21.7952
RightLeg  42.9698 -1.42749 -1.71795
RightFoot  -8.8673 -0.376669 14.1688
RightToes  0.000481921 0.542163 -0.142578
Spine  8.89849 4.65238 5.26166
Spine1  1.8684 8.19663 -14.7148
HEad  -16.2398 3.90219 -17.1705
LeftShoulder1  6.27062 -11.2654 -36.3673
LeftArm  -2.28349 55.4284 -18.0042
LeftForeArm  18.0878 -5.79748 -4.78206
LeftHand  -0.25398 0.0180481 5.50724
RightShoulder  5.5593 9.49897 36.7553
RightArm  -4.98332 13.1658 28.7962
RightForeArm  18.8937 73.7518 42.8472
RightHand  -2.86224 8.10292 -24.6659
LeftUpLeg  -27.8894 16.5526 -12.6563
LeftLeg  38.1469 7.87649 6.93543
LeftFoot  -8.69376 -0.21307 10.7568
LeftToes  1.06245e-005 4.65868e-005 -8.65515e-006
97
root  -13.9178 36.9191 -0.619305 -156.818 -80.7287 150.752
RightUpLeg  10.5723 -5.8591 -22.1942
RightLeg  56.0341 -2.55025 -4.53508
RightFoot  -9.48217 -0.214013 9.12775
RightToes  0.000481921 0.542163 -0.142578
Spine  9.92503 3.41422 2.02777
Spine1  2.95338 6.50325 -12.2719
HEad  -18.2805 3.47627 -16.136
LeftShoulder1  6.47019 -10.8954 -38.7387
LeftArm  -10.3044 46.0887 -25.0112
LeftForeArm  17.8071 -5.45449 -3.52444
LeftHand  -0.25398 0.0180481 5.50724
RightShoulder  5.67845 9.6308 37.2178
RightArm  0.82679 10.1262 31.0036
RightForeArm  7.37428 67.4426 28.6437
RightHand  -2.56182 7.48035 -23.231
LeftUpLeg  -24.7773 16.5475 -13.3548
LeftLeg  41.1854 6.93799 6.85482
LeftFoot  -12.831 0.199492 9.3476
LeftToes  1.06245e-005 4.65868e-005 -8.65515e-006
98
root  -15.2614 37.1558 -0.337211 -152.413 -82.3314 145.619
RightUpLeg  5.01096 -5.15975 -21.3006
RightLeg  65.4465 -3.07681 -7.92239
RightFoot  -10.0328 -0.138529 6.31684
RightToes  0.000481921 0.542163 -0.142578
Spine  9.53607 1.96956 0.143056
Spine1  3.66714 4.53124 -9.98045
HEad  -18.1619 3.21317 -14.1104
LeftShoulder1  7.04796 -11.1752 -41.6457
LeftArm  -16.9554 34.9725 -28.8219
LeftForeArm  16.4168 -5.2098 -1.96419
LeftHand  -0.25398 0.0180481 5.50724
RightShoulder  5.71173 9.63237 37.4576
RightArm  7.71864 6.8091 34.3338
RightForeArm  -3.87501 54.7493 16.5482
RightHand  -2.63518 8.28785 -22.5266
LeftUpLeg  -20.8108 15.9059 -13.2927
LeftLeg  40.224 6.61282 6.32776
LeftFoot  -14.9281 0.37627 9.0518
LeftToes  1.06245e-005 4.65868e-005 -8.65515e-006
99
root  -16.4744 37.9365 -0.0378319 -154.734 -84.8883 148.25
RightUpLeg  -1.30693 -5.62415 -18.1063
RightLeg  69.5851 -3.01037 -9.68814
RightFoot  -9.78587 -0.13505 5.0358
RightToes  0.000481921 0.542163 -0.142578
Spine  8.54705 0.695426 0.544106
Spine1  3.59465 2.88726 -8.35186
HEad  -16.7309 2.47224 -11.5699
LeftShoulder1  7.89201 -11.8364 -44.8121
LeftArm  -21.2565 22.8992 -29.9578
LeftForeArm  13.3213 -6.482 -1.26408
LeftHand  -0.25398 0.0180481 5.50724
RightShoulder  5.7989 9.58393 38.2539
RightArm  14.0434 2.26235 37.056
RightForeArm  -12.5007 37.3348 9.03592
RightHand  -2.68058 8.97834 -21.8514
LeftUpLeg  -15.941 14.8258 -12.0675
LeftLeg  34.967 6.98909 5.59613
LeftFoot  -14.1261 0.340014 10.7774
LeftToes  1.06245e-005 4.65868e-005 -8.65515e-006
100
root  -17.5406 39.1361 0.239408 -149.037 -88.0443 143.217
RightUpLeg  -7.32709 -6.05691 -13.4701
RightLeg  68.6179 -3.09667 -9.47599
RightFoot  -9.71676 -0.136697 5.01166
RightToes  0.000481921 0.542163 -0.142578
Spine  7.89101 -0.0887741 1.98928
Spine1  3.34152 1.74343 -6.91996
HEad  -15.7344 0.993907 -9.05621
LeftShoulder1  8.75679 -12.6425 -47.3353
LeftArm  -21.7138 10.4335 -30.4552
LeftForeArm  11.1107 -9.56123 -2.31352
LeftHand  -0.25398 0.0180481 5.50724
RightShoulder  5.96222 9.63111 39.2901
RightArm  12.1679 -3.68924 38.0615
RightForeArm  -11.4439 19.4402 5.99234
RightHand  -2.04787 7.04537 -19.2688
LeftUpLeg  -9.79967 14.24 -9.78029
LeftLeg  25.5566 4.59233 2.94246
LeftFoot  -10.5927 0.00922404 10.6968
LeftToes  1.06245e-005 4.65868e-005 -8.65515e-006
101
root  -18.5501 40.3456 0.453392 65.5593 -88.1064 -70.5351
RightUpLeg  -12.3944 -7.13432 -9.05407
RightLeg  64.3756 -3.73093 -9.0322
RightFoot  -10.3709 -0.122642 6.22327
RightToes  0.000481921 0.542163 -0.142578
Spine  7.75196 -0.706065 2.31222
Spine1  2.87806 0.377401 -4.14744
HEad  -15.7929 -0.442442 -6.23255
LeftShoulder1  9.24259 -13.2402 -48.1918
LeftArm  -16.6617 -1.79001 -32.0543
LeftForeArm  12.3858 -14.406 -4.09361
LeftHand  -0.25398 0.0180481 5.50724
RightShoulder  6.1257 9.90049 39.5864
RightArm  -8.42853 -11.4383 36.9234
RightForeArm  8.72746 5.90538 7.50159
RightHand  -1.05792 2.7323 -15.2556
LeftUpLeg  -3.52208 12.1343 -6.65884
LeftLeg  15.2544 0.662736 -0.425721
LeftFoot  -6.74948 -0.191027 5.8602
LeftToes  1.06245e-005 4.65868e-005 -8.65515e-006
102
root  -19.5611 41.2208 0.609922 24.7274 -83.5336 -28.5404
RightUpLeg  -16.9554 -10.3005 -5.60875
RightLeg  58.9597 -4.85632 -9.12037
RightFoot  -10.8587 -0.104664 7.19494
RightToes  0.000481921 0.542163 -0.142578
Spine  8.15632 -1.68871 0.619795
Spine1  1.52785 -1.80175 0.824118
HEad  -16.4227 -1.38303 -2.47002
LeftShoulder1  9.25149 -13.4885 -47.5198
LeftArm  -6.22959 -13.7374 -34.9235
LeftForeArm  16.4848 -20.8182 -4.3914
LeftHand  -0.25398 0.0180481 5.50724
RightShoulder  6.15398 10.2364 38.7166
RightArm  -14.008 -21.7449 35.8534
RightForeArm  11.7118 3.2522 4.5882
RightHand  -0.39367 -1.61779 -12.0561
LeftUpLeg  0.820125 4.7747 -3.11941
LeftLeg  8.84176 4.31626 -2.46058
LeftFoot  -5.51617 0.0410196 -0.39108
LeftToes  1.06245e-005 4.65868e-005 -8.65515e-006
103
root  -20.5301 41.6625 0.738541 19.6396 -77.9613 -22.4339
RightUpLeg  -21.2509 -14.6731 -3.22563
RightLeg  53.4869 -5.8179 -8.77879
RightFoot  -10.4606 -0.125367 7.06467
RightToes  0.000481921 0.542163 -0.142578
Spine  9.60247 -2.85498 -2.10424
Spine1  -0.633567 -4.15698 6.34221
HEad  -17.3088 -2.50897 1.92441
LeftShoulder1  8.98035 -13.5562 -45.907
LeftArm  2.68784 -26.4244 -38.741
LeftForeArm  25.4744 -26.6664 -4.29047
LeftHand  -0.25398 0.0180481 5.50724
RightShoulder  5.88948 10.2275 36.8808
RightArm  -15.0935 -33.5582 34.8649
RightForeArm  7.95894 6.52071 4.57672
RightHand  -0.201358 -3.40564 -10.8085
LeftUpLeg  2.79486 4.81798 -0.382085
LeftLeg  8.02709 7.30894 -1.70827
LeftFoot  -6.43226 0.163423 -2.8725
LeftToes  1.06245e-005 4.65868e-005 -8.65515e-006
104
root  -21.4596 41.6204 0.867346 15.7656 -73.049 -18.4258
RightUpLeg  -24.698 -18.073 -1.88504
RightLeg  48.2845 -5.77826 -7.25356
RightFoot  -9.88366 -0.159998 7.2687
RightToes  0.000481921 0.542163 -0.142578
Spine  12.0732 -3.66728 -4.35395
Spine1  -2.53211 -5.78199 10.1212
HEad  -18.5983 -4.21972 5.95392
LeftShoulder1  8.43509 -13.5306 -43.054
LeftArm  9.64637 -40.4183 -44.2192
LeftForeArm  34.0009 -30.4652 -4.75784
LeftHand  -0.25398 0.0180481 5.50724
RightShoulder  5.29267 9.67939 34.1862
RightArm  -13.0595 -44.9487 34.5505
RightForeArm  2.58051 11.821 5.54408
RightHand  -0.329644 -1.77088 -10.3602
LeftUpLeg  4.38835 6.49458 2.00589
LeftLeg  9.53051 11.4732 -0.198719
LeftFoot  -7.21903 0.106556 -1.72942
LeftToes  1.06245e-005 4.65868e-005 -8.65515e-006
